<svg width="165" height="166" viewBox="0 0 165 166" fill="none" xmlns="http://www.w3.org/2000/svg">
<path fill-rule="evenodd" clip-rule="evenodd" d="M165 32.427C165 15.0105 150.881 0.891601 133.465 0.8916L31.8504 0.891596C14.4339 0.891595 0.314987 15.0105 0.314986 32.427L0.314981 134.041C0.314981 151.457 14.4338 165.576 31.8503 165.576L133.465 165.576C150.881 165.576 165 151.457 165 134.041L165 32.427ZM46.5927 122.436C48.852 124.667 52.2265 125.782 56.7163 125.782L107.206 125.782C111.038 125.782 114.026 124.667 116.171 122.436C118.316 120.234 119.388 116.917 119.388 112.484L119.388 68.0862C119.388 63.6536 118.259 60.3362 116 58.1342C113.74 55.9036 110.38 54.7883 105.919 54.7883L98.169 54.7883C97.9506 52.274 97.2308 49.9719 96.0097 47.8819C94.5226 45.3081 92.4922 43.2633 89.9184 41.7477C87.3732 40.232 84.4991 39.4741 81.2961 39.4741C78.0932 39.4741 75.2191 40.232 72.6739 41.7477C70.1287 43.2633 68.1126 45.3081 66.6255 47.8819C65.4044 49.9719 64.6846 52.274 64.4662 54.7883L56.7163 54.7883C52.2265 54.7883 48.8519 55.9036 46.5927 58.1342C44.3621 60.3362 43.2468 63.6536 43.2468 68.0862L43.2468 112.484C43.2468 116.917 44.3621 120.234 46.5927 122.436ZM71.4041 54.7883L91.2276 54.7883C91.0518 53.4209 90.6583 52.1769 90.0471 51.0562C89.2177 49.4834 88.0452 48.2537 86.5295 47.3671C85.0425 46.452 83.298 45.9944 81.2961 45.9944C79.3229 45.9944 77.5784 46.452 76.0627 47.3671C74.5757 48.2537 73.4032 49.4834 72.5452 51.0562C71.9544 52.1769 71.574 53.4209 71.4041 54.7883Z" fill="#ADC3D9" style="fill:#ADC3D9;fill:color(display-p3 0.6784 0.7647 0.8510);fill-opacity:1;"/>
</svg>
