<svg width="165" height="166" viewBox="0 0 165 166" fill="none" xmlns="http://www.w3.org/2000/svg">
<path fill-rule="evenodd" clip-rule="evenodd" d="M165 32.3762C165 14.9597 150.881 0.84082 133.465 0.840819L31.8504 0.840814C14.4339 0.840814 0.314987 14.9597 0.314986 32.3762L0.314981 133.99C0.314981 151.407 14.4338 165.525 31.8503 165.525L133.465 165.525C150.881 165.525 165 151.407 165 133.99L165 32.3762ZM31.107 70.8666L31.107 72.9686C31.107 74.999 31.6933 76.6005 32.8658 77.773C34.0383 78.9455 35.6398 79.5318 37.6702 79.5318L124.965 79.5318C126.995 79.5318 128.597 78.9455 129.769 77.773C130.971 76.6005 131.571 74.999 131.571 72.9686L131.571 70.8666C131.571 68.8648 130.971 67.2633 129.769 66.0622C128.597 64.8611 126.995 64.2605 124.965 64.2605L116.668 64.2605L100.214 36.4206C99.6702 35.4769 98.941 34.9335 98.0258 34.7905C97.1107 34.6475 96.2528 34.7762 95.452 35.1766C94.6799 35.6056 94.108 36.249 93.7362 37.1069C93.393 37.9363 93.5074 38.8657 94.0794 39.8952L108.116 64.2605L54.5617 64.2605L68.5987 39.8952C69.1707 38.8657 69.2708 37.9363 68.899 37.1069C68.5558 36.249 67.9982 35.6056 67.226 35.1766C66.4539 34.7476 65.6103 34.6046 64.6951 34.7476C63.78 34.8906 63.0365 35.4483 62.4645 36.4206L46.01 64.2605L37.6702 64.2605C35.6398 64.2605 34.0383 64.8611 32.8658 66.0622C31.6933 67.2633 31.107 68.8648 31.107 70.8666ZM50.5392 124.916C52.4839 126.06 55.1006 126.632 58.3893 126.632L104.289 126.632C107.578 126.632 110.18 126.06 112.096 124.916C114.041 123.773 115.499 122.285 116.471 120.455C117.444 118.625 118.13 116.68 118.53 114.621L124.493 85.4086L38.2279 85.4086L44.1476 114.621C44.548 116.68 45.2343 118.625 46.2067 120.455C47.179 122.285 48.6232 123.773 50.5392 124.916ZM63.0651 118.225C62.6647 118.768 62.0355 119.111 61.1776 119.254C60.3769 119.368 59.6905 119.225 59.1186 118.825C58.5752 118.453 58.232 117.91 58.089 117.195L54.3999 95.618C54.2569 94.9031 54.3999 94.2739 54.8289 93.7306C55.2579 93.1872 55.887 92.844 56.7163 92.701C57.5171 92.5866 58.2034 92.7296 58.7754 93.13C59.3759 93.5018 59.7334 94.0451 59.8478 94.7601L63.494 116.337C63.6084 117.052 63.4654 117.681 63.0651 118.225ZM76.6633 118.353C76.1771 118.868 75.548 119.154 74.7758 119.211C73.9465 119.268 73.2602 119.068 72.7168 118.611C72.202 118.153 71.9161 117.553 71.8589 116.809L70.4433 95.4893C70.3861 94.7458 70.6006 94.1309 71.0867 93.6448C71.5729 93.13 72.2163 92.844 73.0171 92.7868C73.8464 92.7296 74.5185 92.9298 75.0332 93.3874C75.5766 93.845 75.8769 94.4455 75.9341 95.189L77.3497 116.509C77.3782 117.252 77.1495 117.867 76.6633 118.353ZM89.9613 118.611C89.4465 119.068 88.7888 119.268 87.988 119.211C87.1873 119.154 86.5438 118.868 86.0577 118.353C85.5715 117.867 85.3427 117.252 85.3713 116.509L86.7869 95.189C86.8441 94.4455 87.1301 93.845 87.6448 93.3874C88.1882 92.9298 88.8746 92.7296 89.7039 92.7868C90.5046 92.844 91.1481 93.13 91.6342 93.6448C92.1204 94.1309 92.3349 94.7458 92.2777 95.4893L90.8621 116.809C90.8049 117.553 90.5046 118.153 89.9613 118.611ZM103.517 118.825C102.945 119.225 102.273 119.368 101.5 119.254C100.671 119.111 100.042 118.768 99.613 118.225C99.2127 117.681 99.0697 117.052 99.1841 116.337L102.83 94.7601C102.945 94.0451 103.288 93.5018 103.86 93.13C104.46 92.7296 105.161 92.5866 105.962 92.701C106.791 92.844 107.42 93.2015 107.849 93.7735C108.278 94.3454 108.421 94.9889 108.278 95.7038L104.589 117.195C104.446 117.91 104.089 118.453 103.517 118.825Z" fill="#BFC98D"/>
</svg>
