<svg width="165" height="166" viewBox="0 0 165 166" fill="none" xmlns="http://www.w3.org/2000/svg">
<path fill-rule="evenodd" clip-rule="evenodd" d="M164.734 32.427C164.734 15.0105 150.616 0.891601 133.199 0.8916L31.5848 0.891596C14.1682 0.891595 0.0493616 15.0105 0.0493608 32.427L0.0493564 134.041C0.0493556 151.457 14.1682 165.576 31.5847 165.576L133.199 165.576C150.615 165.576 164.734 151.457 164.734 134.041L164.734 32.427ZM26.7233 89.5775L26.7233 115.144C26.7233 116.259 27.0522 117.146 27.7099 117.803C28.3677 118.461 29.2542 118.79 30.3695 118.79L32.9433 118.79C34.0301 118.79 34.9023 118.461 35.56 117.803C36.2464 117.146 36.5896 116.259 36.5896 115.144L36.5896 108.795C36.8469 108.852 37.2616 108.91 37.8336 108.967C38.4341 108.995 38.9918 109.01 39.5065 109.01L122.64 109.01C123.155 109.01 123.713 108.995 124.313 108.967C124.914 108.91 125.328 108.852 125.557 108.795L125.557 115.144C125.557 116.259 125.886 117.146 126.544 117.803C127.23 118.461 128.117 118.79 129.203 118.79L131.777 118.79C132.893 118.79 133.779 118.461 134.437 117.803C135.095 117.146 135.424 116.259 135.424 115.144L135.424 89.5775C135.424 85.488 134.323 82.3565 132.12 80.1831C129.947 77.9811 126.801 76.88 122.683 76.88L39.4636 76.88C35.3742 76.88 32.2284 77.9811 30.0264 80.1831C27.8243 82.3565 26.7233 85.488 26.7233 89.5775ZM37.0185 58.4345L37.0185 70.7458L47.9143 70.7458L47.9143 64.5687C47.9143 62.5669 48.4576 61.0369 49.5444 59.9788C50.6311 58.9206 52.1896 58.3916 54.2201 58.3916L70.2206 58.3916C72.251 58.3916 73.7953 58.9206 74.8534 59.9788C75.9401 61.0369 76.4835 62.5669 76.4835 64.5687L76.4835 70.7458L86.221 70.7458L86.221 64.5687C86.221 62.5669 86.7644 61.0369 87.8511 59.9788C88.9664 58.9206 90.5965 58.3916 92.7413 58.3916L107.755 58.3916C109.9 58.3916 111.516 58.9206 112.602 59.9788C113.718 61.0369 114.275 62.5669 114.275 64.5687L114.275 70.7458L125.214 70.7458L125.214 58.4345C125.214 54.4594 124.17 51.4709 122.083 49.4691C120.024 47.4386 117.078 46.4234 113.246 46.4234L48.9867 46.4234C45.126 46.4234 42.1661 47.4386 40.1071 49.4691C38.048 51.4709 37.0185 54.4594 37.0185 58.4345Z" fill="#9FC0EE" style="fill:#9FC0EE;fill:color(display-p3 0.6235 0.7529 0.9333);fill-opacity:1;"/>
</svg>
