<svg width="166" height="166" viewBox="0 0 166 166" fill="none" xmlns="http://www.w3.org/2000/svg">
<path fill-rule="evenodd" clip-rule="evenodd" d="M165.023 32.427C165.023 15.0105 150.905 0.891601 133.488 0.8916L31.8738 0.891596C14.4573 0.891595 0.338424 15.0105 0.338423 32.427L0.338419 134.041C0.338418 151.457 14.4573 165.576 31.8738 165.576L133.488 165.576C150.905 165.576 165.023 151.457 165.023 134.041L165.023 32.427ZM48.5036 68.9871C48.189 68.6439 48.1318 68.0719 48.332 67.2712C48.6466 65.7269 49.0756 64.0825 49.6189 62.3381C50.1623 60.5936 50.7199 58.9778 51.2919 57.4907C51.8639 55.9751 52.3786 54.8026 52.8362 53.9732C53.4081 52.9723 54.0516 52.2288 54.7665 51.7426C55.4815 51.2564 56.4109 50.9276 57.5548 50.756C59.1849 50.5272 61.9017 50.3556 65.7052 50.2412C69.5087 50.0982 74.7278 50.0267 81.3625 50.0267C87.9972 50.0267 93.2163 50.0839 97.0198 50.1983C100.852 50.3127 103.569 50.4986 105.17 50.756C106.343 50.9276 107.272 51.2564 107.958 51.7426C108.645 52.2288 109.288 52.9723 109.889 53.9732C110.375 54.774 110.89 55.9322 111.433 57.4479C112.005 58.9349 112.548 60.565 113.063 62.3381C113.606 64.0825 114.064 65.7269 114.436 67.2712C114.636 68.0719 114.565 68.6439 114.221 68.9871C113.907 69.3016 113.335 69.4303 112.505 69.3731C110.132 69.2301 107.515 69.0871 104.655 68.9442C101.824 68.8012 98.5212 68.6868 94.7462 68.601C90.9999 68.5152 86.5387 68.4723 81.3625 68.4723C76.1863 68.4723 71.7107 68.5152 67.9358 68.601C64.1895 68.6868 60.9008 68.8012 58.0696 68.9442C55.2384 69.0872 52.636 69.2301 50.2624 69.3731C49.433 69.4303 48.8468 69.3016 48.5036 68.9871ZM55.3671 96.9986C54.0516 98.3141 52.4072 98.9718 50.434 98.9718C48.4607 98.9718 46.8163 98.3141 45.5009 96.9986C44.1854 95.6545 43.5276 94.0101 43.5276 92.0655C43.5276 90.0922 44.1854 88.4479 45.5009 87.1324C46.8163 85.8169 48.4607 85.1591 50.434 85.1591C52.4072 85.1591 54.0516 85.8169 55.3671 87.1324C56.6826 88.4479 57.3403 90.0922 57.3403 92.0655C57.3403 94.0101 56.6826 95.6545 55.3671 96.9986ZM92.7301 97.256L70.0378 97.256C68.5507 97.256 67.3496 96.7984 66.4344 95.8833C65.5193 94.9682 65.0617 93.767 65.0617 92.28C65.0617 90.8215 65.5193 89.6347 66.4344 88.7195C67.3496 87.8044 68.5507 87.3468 70.0378 87.3468L92.7301 87.3468C94.1886 87.3468 95.3754 87.8044 96.2905 88.7195C97.2057 89.6347 97.6632 90.8215 97.6632 92.28C97.6632 93.767 97.2057 94.9682 96.2905 95.8833C95.3754 96.7984 94.1886 97.256 92.7301 97.256ZM117.224 96.9986C115.909 98.3141 114.264 98.9718 112.291 98.9718C110.346 98.9718 108.716 98.3141 107.401 96.9986C106.085 95.6545 105.428 94.0101 105.428 92.0655C105.428 90.0922 106.085 88.4479 107.401 87.1324C108.716 85.8169 110.346 85.1591 112.291 85.1591C114.264 85.1591 115.909 85.8169 117.224 87.1324C118.54 88.4479 119.197 90.0922 119.197 92.0655C119.197 94.0101 118.54 95.6545 117.224 96.9986ZM69.952 110.425C73.9557 110.511 77.7592 110.554 81.3625 110.554C84.9658 110.554 88.7693 110.511 92.773 110.425C96.7767 110.339 100.709 110.225 104.57 110.082C108.43 109.91 111.962 109.725 115.165 109.524C115.353 109.513 115.539 109.501 115.723 109.489L115.723 116.688C115.723 118.29 116.266 119.634 117.353 120.72C118.44 121.807 119.784 122.351 121.385 122.351L126.447 122.351C128.048 122.351 129.392 121.807 130.479 120.72C131.566 119.634 132.109 118.29 132.109 116.688L132.109 99.5295L132.109 98.1997L132.109 91.9797C132.109 89.5489 131.938 87.4326 131.594 85.631C131.251 83.8007 130.679 82.0991 129.879 80.5263C129.078 78.9248 128.02 77.2661 126.704 75.5503L123.058 70.8745C122.543 68.3007 121.914 65.7555 121.171 63.2389C120.456 60.7223 119.726 58.4631 118.983 56.4612C118.268 54.4594 117.667 52.9294 117.181 51.8713C116.037 49.4405 114.379 47.5101 112.205 46.0802C110.06 44.6503 107.572 43.7495 104.741 43.3777C103.769 43.2347 102.139 43.1204 99.851 43.0346C97.5917 42.9488 94.8606 42.8916 91.6577 42.863C88.4833 42.8058 85.0516 42.7772 81.3625 42.7772C77.6734 42.7772 74.2273 42.8058 71.0244 42.863C67.85 42.9202 65.1189 42.9917 62.8311 43.0775C60.5719 43.1633 58.9704 43.2633 58.0267 43.3777C55.1669 43.7209 52.6646 44.6217 50.5198 46.0802C48.3749 47.5101 46.7306 49.4405 45.5866 51.8713C45.0719 52.9294 44.457 54.4594 43.7421 56.4612C43.0271 58.4631 42.2979 60.7223 41.5544 63.2389C40.8108 65.7555 40.1817 68.3007 39.6669 70.8745L36.0636 75.5502C34.7195 77.2661 33.6471 78.9248 32.8463 80.5263C32.0742 82.0991 31.5022 83.8007 31.1305 85.631C30.7873 87.4326 30.6157 89.5489 30.6157 91.9797L30.6157 98.1997L30.6157 99.5295L30.6157 116.688C30.6157 118.29 31.1591 119.634 32.2458 120.72C33.3325 121.807 34.6909 122.351 36.321 122.351L41.3399 122.351C42.9413 122.351 44.2854 121.807 45.3722 120.72C46.4875 119.634 47.0451 118.29 47.0451 116.688L47.0451 109.495C47.201 109.505 47.3583 109.515 47.517 109.524C50.7485 109.725 54.2947 109.91 58.1554 110.082C62.0161 110.225 65.9483 110.339 69.952 110.425Z" fill="#E7B0D8" style="fill:#E7B0D8;fill:color(display-p3 0.9059 0.6902 0.8471);fill-opacity:1;"/>
</svg>
