<svg width="166" height="166" viewBox="0 0 166 166" fill="none" xmlns="http://www.w3.org/2000/svg">
<path fill-rule="evenodd" clip-rule="evenodd" d="M165.32 32.3186C165.32 14.9021 151.201 0.783203 133.785 0.783202L32.1707 0.783197C14.7542 0.783197 0.635299 14.9021 0.635298 32.3186L0.635294 133.932C0.635293 151.349 14.7542 165.468 32.1707 165.468L133.785 165.468C151.201 165.468 165.32 151.349 165.32 133.932L165.32 32.3186ZM32.414 104.869C32.3854 108.558 33.9153 111.947 37.0039 115.035L56.3074 134.382C56.9938 135.04 57.8088 135.369 58.7525 135.369C59.7248 135.369 60.5542 135.04 61.2405 134.382C61.8983 133.696 62.2272 132.866 62.2272 131.894C62.2272 130.95 61.8983 130.149 61.2405 129.492L48.6289 116.837L53.0239 112.442L66.0021 125.502C66.574 126.046 67.2604 126.317 68.0611 126.317C68.8618 126.317 69.5339 126.046 70.0772 125.502C70.6492 124.93 70.9352 124.244 70.9352 123.443C70.9638 122.643 70.6921 121.956 70.1202 121.384L57.101 108.365L61.5174 103.949L74.4956 117.009C75.0676 117.552 75.7539 117.824 76.5547 117.824C77.3554 117.824 78.0274 117.552 78.5708 117.009C79.1142 116.437 79.3858 115.75 79.3858 114.95C79.4144 114.149 79.157 113.463 78.6137 112.891L65.5945 99.8715L70.011 95.4551L82.9892 108.515C83.5611 109.059 84.2475 109.33 85.0482 109.33C85.8489 109.33 86.521 109.059 87.0643 108.515C87.6363 107.943 87.9223 107.257 87.9223 106.456C87.9509 105.627 87.6792 104.94 87.1072 104.397L74.0881 91.378L78.5055 86.9606L91.4827 99.9788C92.0547 100.551 92.741 100.837 93.5417 100.837C94.3425 100.837 95.0145 100.551 95.5579 99.9788C96.1298 99.4354 96.4158 98.7633 96.4158 97.9626C96.4444 97.1333 96.1727 96.4469 95.6008 95.9036L82.5816 82.8844L86.9562 78.5099L99.9333 91.5281C100.505 92.0715 101.192 92.3431 101.992 92.3431C102.793 92.3431 103.465 92.0858 104.009 91.571C104.58 90.9991 104.866 90.3127 104.866 89.512C104.895 88.6826 104.623 87.9963 104.051 87.4529L91.0527 74.4133L95.4301 70.0359L108.427 82.9917C108.999 83.5636 109.685 83.8496 110.486 83.8496C111.287 83.8496 111.959 83.5779 112.502 83.0346C113.074 82.4626 113.36 81.7906 113.36 81.0184C113.389 80.2177 113.117 79.5313 112.545 78.9594L99.5258 65.9402L103.924 61.5424L116.92 74.4981C117.492 75.0987 118.179 75.399 118.979 75.399C119.78 75.399 120.452 75.113 120.996 74.541C121.568 73.9977 121.854 73.3256 121.854 72.5249C121.882 71.6955 121.61 70.9949 121.039 70.4229L108.02 57.4456L112.459 53.0069L125.071 65.6185C125.729 66.3049 126.529 66.6623 127.473 66.6909C128.417 66.6909 129.217 66.3478 129.875 65.6614C130.562 64.9751 130.905 64.16 130.905 63.2163C130.905 62.2726 130.562 61.4575 129.875 60.7712L110.572 41.4677C107.483 38.3791 104.094 36.8491 100.405 36.8777C96.7161 36.9063 93.313 38.4792 90.1958 41.5964L37.1326 94.6596C34.0154 97.7481 32.4426 101.151 32.414 104.869Z" fill="#E9B89E" style="fill:#E9B89E;fill:color(display-p3 0.9137 0.7216 0.6196);fill-opacity:1;"/>
</svg>
