<svg width="166" height="166" viewBox="0 0 166 166" fill="none" xmlns="http://www.w3.org/2000/svg">
<path fill-rule="evenodd" clip-rule="evenodd" d="M165.023 32.3186C165.023 14.9021 150.905 0.783203 133.488 0.783202L31.8738 0.783197C14.4573 0.783197 0.338424 14.9021 0.338423 32.3186L0.338419 133.932C0.338418 151.349 14.4573 165.468 31.8738 165.468L133.488 165.468C150.905 165.468 165.023 151.349 165.023 133.932L165.023 32.3186ZM63.0378 130.864C67.4418 132.695 73.5332 133.61 81.3118 133.61C89.0904 133.61 95.1817 132.68 99.5858 130.821C103.99 128.991 106.192 126.432 106.192 123.143C106.192 120.112 104.276 117.695 100.444 115.893C96.6402 114.092 91.3496 113.048 84.5719 112.762L84.5719 94.3593C90.2343 93.9589 95.1674 92.5433 99.3713 90.1125C103.604 87.6817 106.878 84.4359 109.195 80.375C111.54 76.3141 112.712 71.624 112.712 66.3049C112.712 63.3593 112.326 60.1992 111.554 56.8247C110.782 53.4216 109.709 50.0613 108.337 46.744C106.964 43.398 105.377 40.3381 103.575 37.5641C102.317 35.5908 99.7287 34.0752 95.8109 33.017C91.9215 31.9589 87.1028 31.4299 81.3547 31.4299C75.5779 31.4299 70.7306 31.9589 66.8127 33.017C62.9234 34.0751 60.3353 35.5908 59.0484 37.5641C57.2467 40.3381 55.6596 43.398 54.2869 46.744C52.9428 50.0613 51.8846 53.4216 51.1125 56.8247C50.369 60.1992 49.9972 63.3593 49.9972 66.3049C49.9972 71.6526 51.1554 76.357 53.4718 80.4179C55.8168 84.4788 59.0913 87.7246 63.2952 90.1554C67.499 92.5576 72.4465 93.9589 78.1374 94.3593L78.1374 112.762C71.3311 113.019 66.012 114.049 62.1799 115.851C58.3763 117.681 56.4746 120.112 56.4746 123.143C56.4746 126.46 58.6623 129.034 63.0378 130.864ZM89.8911 41.7251C87.4317 41.9252 84.5862 42.0253 81.3547 42.0253C78.0945 42.0253 75.2347 41.9252 72.7753 41.7251C70.3159 41.4963 68.3999 41.196 67.0272 40.8242C65.6831 40.4525 65.011 40.0521 65.011 39.6231C65.011 39.2228 65.6974 38.851 67.0701 38.5078C68.4428 38.136 70.3445 37.8501 72.7753 37.6499C75.2347 37.4211 78.0945 37.3067 81.3547 37.3067C84.5862 37.3067 87.4317 37.4211 89.8911 37.6499C92.3505 37.8501 94.2666 38.136 95.6393 38.5078C97.012 38.851 97.6983 39.2228 97.6983 39.6231C97.6983 40.0521 97.012 40.4525 95.6393 40.8242C94.2666 41.196 92.3505 41.4963 89.8911 41.7251Z" fill="#CBA5F2" style="fill:#CBA5F2;fill:color(display-p3 0.7961 0.6471 0.9490);fill-opacity:1;"/>
</svg>
