<svg width="166" height="165" viewBox="0 0 166 165" fill="none" xmlns="http://www.w3.org/2000/svg">
<path fill-rule="evenodd" clip-rule="evenodd" d="M165.023 31.5354C165.023 14.1189 150.905 -6.17154e-07 133.488 -1.37845e-06L31.8738 -5.82014e-06C14.4573 -6.58144e-06 0.338424 14.1189 0.338423 31.5354L0.338419 133.149C0.338418 150.566 14.4573 164.685 31.8738 164.685L133.488 164.685C150.905 164.685 165.023 150.566 165.023 133.149L165.023 31.5354ZM79.8104 122.059C80.4109 122.317 80.9257 122.446 81.3547 122.446C81.8122 122.446 82.327 122.317 82.899 122.059C83.4995 121.831 84.0286 121.573 84.4861 121.287C92.5507 116.14 99.5286 110.749 105.42 105.115C111.339 99.4529 115.901 93.6476 119.104 87.6992C122.335 81.7223 123.951 75.6882 123.951 69.5968C123.951 65.7933 123.336 62.3187 122.107 59.1729C120.905 55.9986 119.218 53.2532 117.045 50.9368C114.9 48.6204 112.369 46.833 109.452 45.5747C106.564 44.3164 103.432 43.6872 100.058 43.6872C95.8823 43.6872 92.2075 44.7597 89.0332 46.9045C85.8588 49.0207 83.2993 51.8519 81.3547 55.398C79.4386 51.8805 76.8934 49.0493 73.7191 46.9045C70.5447 44.7597 66.8556 43.6872 62.6517 43.6872C59.2772 43.6872 56.1457 44.3164 53.2573 45.5747C50.369 46.833 47.8381 48.6204 45.6646 50.9368C43.4912 53.2532 41.7896 55.9986 40.5599 59.1729C39.3588 62.3187 38.7583 65.7933 38.7583 69.5968C38.7583 75.6882 40.3597 81.7223 43.5627 87.6992C46.7942 93.6476 51.3699 99.4529 57.2896 105.115C63.2094 110.749 70.2015 116.14 78.2661 121.287C78.7237 121.573 79.2384 121.831 79.8104 122.059Z" fill="#EFA7A3" style="fill:#EFA7A3;fill:color(display-p3 0.9373 0.6549 0.6392);fill-opacity:1;"/>
</svg>
