<svg width="165" height="166" viewBox="0 0 165 166" fill="none" xmlns="http://www.w3.org/2000/svg">
<path fill-rule="evenodd" clip-rule="evenodd" d="M164.734 32.3186C164.734 14.9021 150.616 0.783203 133.199 0.783202L31.5848 0.783197C14.1682 0.783197 0.0493616 14.9021 0.0493608 32.3186L0.0493564 133.932C0.0493556 151.349 14.1682 165.468 31.5847 165.468L133.199 165.468C150.615 165.468 164.734 151.349 164.734 133.932L164.734 32.3186ZM77.5988 87.9416C74.0817 87.8884 70.6213 87.7541 67.2178 87.5387C62.7279 87.2527 58.5813 86.8381 54.7778 86.2947C51.8322 85.8371 49.9018 84.5931 48.9867 82.5627C48.0716 80.5323 48.1002 77.9871 49.0725 74.9271L60.3972 39.0655C61.3981 35.8339 63.1283 33.4746 65.5877 31.9875C68.0757 30.4718 71.0642 29.714 74.5531 29.714L87.5508 29.714C91.0683 29.714 94.0568 30.4718 96.5162 31.9875C98.9756 33.4746 100.706 35.8339 101.707 39.0655L113.031 74.9271C114.004 77.9871 114.032 80.5323 113.117 82.5627C112.231 84.5931 110.3 85.8371 107.326 86.2947C103.523 86.8381 99.3617 87.2527 94.8433 87.5387C91.4542 87.7546 88.0082 87.889 84.5052 87.9419L84.5052 126.789L96.2588 126.789C98.3179 126.789 99.948 127.304 101.149 128.333C102.379 129.363 102.994 130.693 102.994 132.323C102.994 133.152 102.751 133.824 102.264 134.339C101.778 134.854 101.135 135.111 100.334 135.111L61.7699 135.111C60.9692 135.111 60.3257 134.854 59.8396 134.339C59.382 133.824 59.1532 133.152 59.1532 132.323C59.1532 130.693 59.7538 129.363 60.9549 128.333C62.156 127.304 63.7861 126.789 65.8451 126.789L77.5988 126.789L77.5988 87.9416Z" fill="#ADC3D9" style="fill:#ADC3D9;fill:color(display-p3 0.6784 0.7647 0.8510);fill-opacity:1;"/>
</svg>
