<svg width="165" height="165" viewBox="0 0 165 165" fill="none" xmlns="http://www.w3.org/2000/svg">
<path fill-rule="evenodd" clip-rule="evenodd" d="M164.734 31.5354C164.734 14.1189 150.616 -6.17154e-07 133.199 -1.37845e-06L31.5848 -5.82014e-06C14.1682 -6.58144e-06 0.0493616 14.1189 0.0493608 31.5354L0.0493564 133.149C0.0493556 150.566 14.1682 164.685 31.5847 164.685L133.199 164.685C150.615 164.685 164.734 150.566 164.734 133.149L164.734 31.5354ZM132.507 86.1979C133.879 84.8824 134.566 83.3953 134.566 81.7366C134.566 80.0779 133.879 78.6051 132.507 77.3182C131.134 76.0027 129.304 74.9732 127.016 74.2297C124.728 73.4575 122.226 73.0715 119.509 73.0715L102.221 73.0715C101.02 73.0715 100.105 72.9428 99.4761 72.6854C98.8755 72.3994 98.2178 71.8561 97.5028 71.0553L68.6763 39.6121C67.7325 38.5825 66.6315 38.0678 65.3732 38.0678L60.3972 38.0678C59.8539 38.0678 59.4392 38.2823 59.1532 38.7112C58.8958 39.1402 58.9101 39.655 59.1961 40.2555L74.0384 73.0715L52.2468 75.5595L44.4825 61.3178C43.9106 60.2883 42.9383 59.7735 41.5656 59.7735L39.721 59.7735C39.1777 59.7735 38.7344 59.9451 38.3912 60.2883C38.048 60.6028 37.8765 61.0461 37.8765 61.6181L37.8765 101.855C37.8765 102.399 38.048 102.842 38.3912 103.185C38.7344 103.5 39.1777 103.657 39.721 103.657L41.5656 103.657C42.9383 103.657 43.9106 103.156 44.4825 102.155L52.2468 87.9137L74.0384 90.4017L59.1961 123.218C58.9101 123.818 58.8958 124.333 59.1532 124.762C59.4392 125.191 59.8539 125.405 60.3972 125.405L65.3732 125.405C66.6315 125.405 67.7325 124.891 68.6763 123.861L97.5028 92.375C98.2178 91.5742 98.8755 91.0452 99.4761 90.7878C100.105 90.5304 101.02 90.4017 102.221 90.4017L119.509 90.4017C122.226 90.4017 124.728 90.03 127.016 89.2864C129.304 88.5143 131.134 87.4848 132.507 86.1979Z" fill="#B4A8F0" style="fill:#B4A8F0;fill:color(display-p3 0.7059 0.6588 0.9412);fill-opacity:1;"/>
</svg>
