<svg width="166" height="165" viewBox="0 0 166 165" fill="none" xmlns="http://www.w3.org/2000/svg">
<path fill-rule="evenodd" clip-rule="evenodd" d="M165.32 31.5354C165.32 14.1189 151.201 -6.17154e-07 133.785 -1.37845e-06L32.1707 -5.82014e-06C14.7542 -6.58144e-06 0.635299 14.1189 0.635298 31.5354L0.635294 133.149C0.635293 150.566 14.7542 164.685 32.1707 164.685L133.785 164.685C151.201 164.685 165.32 150.566 165.32 133.149L165.32 31.5354ZM50.9024 125.663C52.8757 127.607 55.8498 128.58 59.8249 128.58L103.451 128.58C107.426 128.58 110.386 127.607 112.33 125.663C114.304 123.747 115.319 120.815 115.376 116.869L115.934 74.7444L126.443 77.1467C128.445 77.5756 130.075 77.3897 131.334 76.589C132.621 75.7883 133.507 74.3584 133.993 72.2993L137.811 57.071C138.326 55.0406 138.211 53.3247 137.468 51.9234C136.724 50.4935 135.366 49.3639 133.393 48.5346L103.193 35.6656C102.336 35.2938 101.506 35.1222 100.705 35.1508C99.9047 35.1508 99.104 35.3367 98.3033 35.7085C96.4158 36.595 94.5999 37.3385 92.8554 37.9391C91.1395 38.5396 89.3665 38.9972 87.5362 39.3118C85.7345 39.6264 83.7756 39.7836 81.6594 39.7836C79.5145 39.7836 77.527 39.6264 75.6967 39.3118C73.8951 38.9972 72.122 38.5396 70.3775 37.9391C68.6617 37.3385 66.86 36.595 64.9725 35.7085C64.1718 35.3367 63.3711 35.1508 62.5703 35.1508C61.7696 35.1222 60.9403 35.2938 60.0823 35.6656L29.8831 48.5346C27.9384 49.3639 26.58 50.4935 25.8079 51.9234C25.0643 53.3247 24.9499 55.0406 25.4647 57.071L29.2825 72.2993C29.7687 74.3584 30.6409 75.7883 31.8992 76.589C33.1861 77.3897 34.8305 77.5756 36.8323 77.1467L47.3849 74.7444L47.8997 116.869C47.9569 120.815 48.9578 123.747 50.9024 125.663ZM88.2654 51.9663C86.3208 52.767 84.1188 53.1674 81.6594 53.1674C79.1999 53.1674 76.9979 52.767 75.0533 51.9663C73.1372 51.1656 71.4928 50.0217 70.1201 48.5346C68.7761 47.0475 67.7322 45.2601 66.9887 43.1725C69.2193 44.0304 71.5786 44.6882 74.0666 45.1457C76.5832 45.6033 79.1141 45.8321 81.6594 45.8321C84.176 45.8321 86.6783 45.6033 89.1663 45.1457C91.6829 44.6882 94.0565 44.0304 96.2871 43.1725C95.5722 45.2315 94.5427 47.0046 93.1986 48.4917C91.8545 49.9788 90.2101 51.137 88.2654 51.9663Z" fill="#E3D3AA" style="fill:#E3D3AA;fill:color(display-p3 0.8902 0.8275 0.6667);fill-opacity:1;"/>
</svg>
