<svg width="166" height="166" viewBox="0 0 166 166" fill="none" xmlns="http://www.w3.org/2000/svg">
<path fill-rule="evenodd" clip-rule="evenodd" d="M165.32 32.427C165.32 15.0105 151.201 0.891601 133.785 0.8916L32.1707 0.891596C14.7542 0.891595 0.635299 15.0105 0.635298 32.427L0.635294 134.041C0.635293 151.457 14.7542 165.576 32.1707 165.576L133.785 165.576C151.201 165.576 165.32 151.457 165.32 134.041L165.32 32.427ZM62.6561 127.756C63.6856 128.728 65.1012 129.214 66.9029 129.214C68.7046 129.214 70.1201 128.728 71.1497 127.756C72.1792 126.783 72.6939 125.425 72.6939 123.68L71.836 75.5074C71.836 74.7638 71.9933 74.1204 72.3079 73.577C72.6511 73.005 73.1515 72.5761 73.8093 72.2901C75.6967 71.4608 77.2267 70.5599 78.3992 69.5876C79.6003 68.5867 80.4582 67.3141 80.973 65.7698C81.4878 64.2255 81.7023 62.1951 81.6165 59.6785L80.4154 33.3399C80.3296 31.3667 79.3429 30.38 77.4555 30.38C76.6261 30.38 75.9684 30.6517 75.4822 31.1951C74.9961 31.7098 74.753 32.4534 74.753 33.4257L75.0533 59.035C75.0533 59.8072 74.8245 60.4077 74.3669 60.8367C73.9379 61.2657 73.3803 61.4801 72.6939 61.4801C71.9504 61.4801 71.3499 61.28 70.8923 60.8796C70.4347 60.4506 70.2059 59.8787 70.2059 59.1637L69.777 32.6536C69.7484 31.7384 69.4767 31.0235 68.9619 30.5087C68.4758 29.994 67.7894 29.7366 66.9029 29.7366C66.045 29.7366 65.3586 29.994 64.8439 30.5087C64.3291 31.0235 64.0717 31.7384 64.0717 32.6536L63.6427 59.1637C63.6427 59.8787 63.3997 60.4506 62.9135 60.8796C62.4559 61.28 61.8697 61.4801 61.1547 61.4801C59.5533 61.4801 58.7525 60.6651 58.7525 59.035L59.0528 33.4257C59.0528 32.4534 58.8097 31.7098 58.3236 31.1951C57.866 30.6517 57.2082 30.38 56.3503 30.38C55.4638 30.38 54.7631 30.6374 54.2484 31.1522C53.7336 31.6669 53.4476 32.3962 53.3904 33.3399L52.2322 59.6785C52.1178 62.1951 52.318 64.2255 52.8328 65.7698C53.3475 67.3141 54.1912 68.5867 55.3637 69.5876C56.5648 70.5599 58.1091 71.4608 59.9965 72.2901C60.6829 72.5761 61.1833 73.005 61.4979 73.577C61.8125 74.1204 61.9698 74.7638 61.9698 75.5074L61.1547 123.68C61.1261 125.425 61.6266 126.783 62.6561 127.756ZM99.9762 89.7491C100.348 90.3496 100.52 91.036 100.491 91.8081L99.5473 123.466C99.4901 125.325 99.9905 126.74 101.049 127.713C102.107 128.714 103.522 129.214 105.295 129.214C107.097 129.214 108.527 128.756 109.585 127.841C110.643 126.955 111.172 125.654 111.172 123.938L111.172 32.9538C111.172 31.8671 110.858 31.0664 110.229 30.5516C109.599 30.0083 108.884 29.7366 108.084 29.7366C107.283 29.7366 106.582 29.9654 105.982 30.4229C105.381 30.8805 104.723 31.6097 104.009 32.6107C102.293 35.0415 100.734 37.9442 99.3328 41.3187C97.9315 44.6646 96.7161 48.3395 95.6866 52.3431C94.6856 56.3182 93.9135 60.4506 93.3701 64.7403C92.8268 69.03 92.5551 73.3196 92.5551 77.6093L92.5551 79.7112C92.5551 81.1983 92.8268 82.4852 93.3702 83.5719C93.9135 84.6586 94.7142 85.5595 95.7724 86.2744L98.3462 87.9903C99.0897 88.5337 99.6331 89.1199 99.9762 89.7491Z" fill="#DFC1A5" style="fill:#DFC1A5;fill:color(display-p3 0.8745 0.7569 0.6471);fill-opacity:1;"/>
</svg>
