<svg width="165" height="165" viewBox="0 0 165 165" fill="none" xmlns="http://www.w3.org/2000/svg">
<path fill-rule="evenodd" clip-rule="evenodd" d="M165 31.5354C165 14.1189 150.881 -6.17154e-07 133.465 -1.37845e-06L31.8504 -5.82014e-06C14.4339 -6.58144e-06 0.314987 14.1189 0.314986 31.5354L0.314981 133.149C0.314981 150.566 14.4338 164.685 31.8503 164.685L133.465 164.685C150.881 164.685 165 150.566 165 133.149L165 31.5354ZM64.4377 122.059C69.7283 124.347 75.3621 125.491 81.339 125.491C87.316 125.491 92.9354 124.347 98.1974 122.059C103.488 119.772 108.149 116.612 112.182 112.579C116.214 108.547 119.374 103.9 121.662 98.6379C123.95 93.3473 125.094 87.7135 125.094 81.7366C125.094 75.7597 123.95 70.1402 121.662 64.8782C119.374 59.5876 116.214 54.9262 112.182 50.8939C108.149 46.8616 103.488 43.7015 98.1974 41.4137C92.9068 39.1259 87.2731 37.982 81.2961 37.982C75.3192 37.982 69.6854 39.1259 64.3948 41.4137C59.1329 43.7015 54.4857 46.8616 50.4534 50.8939C46.4497 54.9262 43.304 59.5876 41.0162 64.8782C38.7283 70.1402 37.5844 75.7597 37.5844 81.7366C37.5844 87.7135 38.7283 93.3473 41.0162 98.6379C43.304 103.9 46.464 108.547 50.4963 112.579C54.5286 116.612 59.1758 119.772 64.4377 122.059ZM50.4105 65.0069C50.0388 63.8916 50.2961 62.7334 51.1827 61.5323C53.2703 58.2721 55.8584 55.4266 58.947 52.9958C62.0355 50.5364 65.4673 48.6347 69.2422 47.2906C73.0171 45.9465 77.0208 45.2744 81.2532 45.2744C85.4857 45.2744 89.4894 45.9465 93.2643 47.2906C97.0678 48.6347 100.5 50.5364 103.56 52.9958C106.648 55.4266 109.25 58.2578 111.367 61.4894C112.253 62.6905 112.511 63.863 112.139 65.0069C111.767 66.1222 110.852 66.6799 109.393 66.6799L53.1559 66.6799C51.726 66.6799 50.8109 66.1222 50.4105 65.0069ZM88.0309 90.6162C86.1721 92.4751 83.9271 93.4045 81.2961 93.4045C78.6365 93.4045 76.3773 92.4751 74.5185 90.6162C72.6882 88.7574 71.7731 86.4981 71.7731 83.8385C71.7731 81.2361 72.6882 79.0055 74.5185 77.1467C76.3773 75.2878 78.6365 74.3584 81.2961 74.3584C83.9271 74.3584 86.1721 75.2878 88.0309 77.1467C89.8898 79.0055 90.8192 81.2361 90.8192 83.8385C90.8192 86.4981 89.8898 88.7574 88.0309 90.6162ZM50.4105 101.169C48.4945 98.1088 47.0789 94.8201 46.1638 91.3026C45.792 89.9871 45.9064 89.029 46.5069 88.4285C47.1361 87.8279 48.0083 87.5991 49.1236 87.7421C52.1836 88.0853 55.0291 88.9718 57.6601 90.4017C60.3197 91.8316 62.6218 93.6762 64.5664 95.9354C66.5397 98.1946 68.0411 100.74 69.0706 103.571C70.1287 106.402 70.6149 109.391 70.5291 112.536C70.5005 113.652 70.1144 114.481 69.3709 115.024C68.6273 115.596 67.6836 115.611 66.5397 115.067C63.1651 113.552 60.1052 111.621 57.3598 109.276C54.643 106.903 52.3266 104.2 50.4105 101.169ZM116.042 88.4285C116.672 89.029 116.8 89.9871 116.429 91.3026C115.513 94.8201 114.098 98.1088 112.182 101.169C110.266 104.2 107.935 106.903 105.19 109.276C102.473 111.621 99.4271 113.552 96.0526 115.067C94.9087 115.611 93.965 115.596 93.2214 115.024C92.4779 114.481 92.0918 113.652 92.0632 112.536C91.9774 109.391 92.4493 106.402 93.4788 103.571C94.5369 100.74 96.0383 98.2089 97.983 95.9783C99.9562 93.7191 102.258 91.8745 104.889 90.4446C107.52 88.9861 110.38 88.0853 113.469 87.7421C114.584 87.5991 115.442 87.8279 116.042 88.4285Z" fill="#ADB3CC" style="fill:#ADB3CC;fill:color(display-p3 0.6800 0.7000 0.8000);fill-opacity:1;"/>
</svg>
